<svg id="fill_color" data-name="fill color" xmlns="http://www.w3.org/2000/svg" viewBox="0 0 1501 101"><defs><style>.cls-1{fill:#7fc8de;stroke:#000;stroke-miterlimit:10;}</style></defs><path class="cls-1" d="M1410.14,193.45V152.72c-1.43-.52-2.77-.12-4.7,1.72-5,4.78-17.12,5.09-23.63,1.29A22.89,22.89,0,0,1,1371,142H1254a17.32,17.32,0,0,0-.93,2.39c-5.26,16.67-27.12,22.25-40,10.37-2.85-2.63-4.47-3.3-7.64-.33-5.21,4.89-16.44,5.13-23.59,1.24A21.56,21.56,0,0,1,1171.13,142H1054.06c-4.9,20.19-28.83,24.67-42.18,11.67-2-1.93-3.28-1.88-5.4-.06-6.7,5.75-17.93,6.26-25.64,1.49a20.63,20.63,0,0,1-9.57-13.1H853.88l-.06.3c-3.13,17.23-25.41,25.37-40.79,12.34-3-2.59-4.64-2.91-7.68-.08-5.06,4.72-17.16,5-23.65,1.14A22.82,22.82,0,0,1,771,142H654.61a5.27,5.27,0,0,0-1.16,2.73c-3.12,17.41-25.44,25.39-40.74,12.55-2.93-2.45-4.53-3.26-7.68-.26-5,4.78-17.12,5.09-23.63,1.29-6.29-3.67-10.59-9.83-11.25-16.31H455.55c-1.27,1-2.13,2.57-2.88,4.94-5.26,16.67-27.12,22.25-40,10.37-2.85-2.63-4.46-3.3-7.64-.33-5.21,4.88-16.44,5.13-23.58,1.24A21.2,21.2,0,0,1,370.29,142H254.82a4.79,4.79,0,0,0-1.11,2.33c-4.77,20.38-28.84,24.94-42.24,11.89-2-1.93-3.28-1.88-5.4-.06-6.7,5.74-17.92,6.26-25.64,1.49a20.43,20.43,0,0,1-10-15.65H54.74a4.79,4.79,0,0,0-1.33,2.85C50.28,162,28,170.19,12.62,157.16c-3-2.59-4.64-2.92-7.68-.09-5.06,4.72-17.16,5-23.65,1.15-6.23-3.69-10.48-9.82-11.14-16.25h-60V242h1500V199.9a11.8,11.8,0,0,0-3.82,3.1c-.93,1.11-1,2.85-2.55,3.52C1400.56,199.79,1404.82,194.66,1410.14,193.45Z" transform="translate(90.36 -141.47)"/><path class="cls-1" d="M-9.2,206.12c-2.74,8.13-10.52,13.75-19.79,14.34-7,.44-12.62-2.26-17.34-7.26-3.33-3.53-5.77-3.54-9.33-.33-3.22,2.89-4.56,6.9-6.54,10.55-4.4,8.11-9.76,15.17-19.58,17.1v-62c1.62,1.36,2.87,2.44,3.15-1.07.4-5,1.37-9.88,4.31-14.17,4.53-6.6,13.13-8,19-2.66,2.41,2.17,3.91,2.3,6.77.54,12.76-7.87,29.44,1.28,29.64,16.19.05,3.67,1,6.08,4.08,8.37C-8.94,190.13-6.81,199-9.2,206.12Z" transform="translate(90.36 -141.47)"/><path class="cls-1" d="M53.41,207c-.26,7.4-5,11.29-11.85,9.1-3.55-1.13-6.26-1.58-9.93-.1-7.69,3.1-11-2.6-12.31-8.41-.45-2-1-3.72-2.71-5.08-4.74-3.74-7.24.74-10.35,2.76-1.19.76-1.36,2.65-3.33,3.4-1.6-8.93,2.84-14,11.1-12.37,7.22,1.38,9.65-4.1,11-10.35a14.64,14.64,0,0,0-.13-4.47C23.94,173.35,30,168,38,168.87c6.53.67,13.27.08,19.32-3.15,4.11-2.19,9.89-1.07,11.41,3.53,1.61,4.86,5.32,10.05,3.65,14.9-2,5.9-4.57,11.65-6.51,17.67-1,3-5.51,3.59-9.14,2.92C54.92,204.41,53.5,204.32,53.41,207Z" transform="translate(90.36 -141.47)"/><path class="cls-1" d="M186.57,213.74c-8.57,8.58-23.8,9-32,.44-4.72-4.93-8-4.83-11.87.76a91.22,91.22,0,0,0-5.4,9.55c-4.45,8.31-10.58,14.48-20.23,16.34-6.78,1.3-12.8-1.25-18.75-3.86-5-2.2-9.79-5-14.84-7.13-9.31-3.9-18.15-4-25.35,5.27-1.26-13.5,8.4-24.25,21-23.26,11.1.86,14.6-2.49,14.12-13.55-.1-2.33-.68-4.64-.63-7,.14-6.31,2.7-11.3,8.64-14.06,5.64-2.62,11.22-2.87,16.55.92.91.66,1.85,1.28,3,2.11,1.21-5.42,1.56-10.56,3.93-15.28,4-7.89,13.38-10.25,20-4.43,2.39,2.11,3.89,2.35,6.78.61,6.41-3.88,13.51-4.17,20-.28s10.31,9.88,9.66,17.9c-.18,2.31,0,4,2.3,5.48C194.3,191.22,192.86,207.42,186.57,213.74Z" transform="translate(90.36 -141.47)"/><path class="cls-1" d="M253.47,209.19c.6,4.91-5.9,9.11-11.75,6.83-4.22-1.64-7.62-.6-11.32.24-6.22,1.4-9.78-1.11-9.35-7.24.3-4.16-3-5-5.3-6.9s-3.63-1-5.87.37c-2.62,1.62-4.3,4-6.84,6.58-1.76-9.42,2.66-14.27,11-13.11,5.46.76,9.48-2.22,10.08-7.76.31-2.8,0-5.66.23-8.48.57-8,7.06-12.61,14.69-10.14,2.94.95,4.69-1.18,6.91-1.32A37.3,37.3,0,0,0,259.6,165c4.66-2.14,10.61,2.88,10.13,8.24-.21,2.31.63,3.17,1.86,4.54,3.33,3.68,2.86,8.23-1,11.28-2,1.55-3.93,2.13-1.76,5.83,2.42,4.12-5.27,11.36-10.58,10C253.73,203.77,252.94,204.79,253.47,209.19Z" transform="translate(90.36 -141.47)"/><path class="cls-1" d="M386.67,213.47c-8.62,9.13-24,9.37-32.35.5-4.31-4.56-7.18-4.51-11.35.32-3,3.45-4.32,7.86-6.66,11.69-9.18,15.09-21.39,18.85-37.36,11.34-3.61-1.7-7.11-3.63-10.71-5.37-10.44-5-20.77-8.18-29.91,2.82-2.37-8.1,5-19.91,13.26-22a26.5,26.5,0,0,1,9.38-.7c8.11.84,12.24-3.07,12.27-11.15,0-3.33.1-6.68-.14-10-.45-6.24,2.24-10.77,7.62-13.44,5.66-2.81,11.48-3.27,17,.7.9.65,1.58,1.78,3.1,1.68,1.32-4.58,1.14-9.53,3.22-14,2.87-6.1,8-9.13,14.45-8.32,1,.13,2.28.15,2.84.76,4.64,5.18,9.13,3,14.68,1.09C369.1,155,381.5,165,381.12,178.84c-.07,2.32.08,4.1,2.26,5.55C394.83,192.05,392.41,207.4,386.67,213.47Z" transform="translate(90.36 -141.47)"/><path class="cls-1" d="M453.28,206.77c.05,7.44-4.83,11.73-11.65,9.23-4.25-1.56-7.64-.55-11.32.32-5.18,1.22-9.81-1.29-10.84-6.32-.6-3,.35-6.91-4.05-7.51-4.58-.63-8.64.55-10.87,5.21a14.39,14.39,0,0,1-1.69,2.08c-1.51-10.5,2.62-14.84,12-13.66,4.76.6,8.73-2.76,9.25-8.09.29-3,0-6,.26-9,.7-7.34,6-10.87,13.14-9.3,2,.44,4.27,1.13,6.18-.63,1.35-1.25,3-1.18,4.72-1.1a13.05,13.05,0,0,0,7.48-1.89c6.62-3.78,11.86-.81,12.53,6.75a6.27,6.27,0,0,0,2,3.85c4.06,4.32,3.85,9-.6,12.72-1.4,1.19-2.33,2.4-1.73,4.25,2.11,6.49-4.37,12.26-11.47,10.94C454.64,204.27,453.25,203.65,453.28,206.77Z" transform="translate(90.36 -141.47)"/><path class="cls-1" d="M589.9,208.27c-3.9,8.44-14.06,13.51-23.7,12-5-.79-9-3.4-12.4-6.92-3.6-3.67-6-3.71-9.68-.25-3.16,2.94-4.48,7-6.45,10.6-4.59,8.5-10.48,15.34-20.69,17.2-7,1.29-13.09-1.49-19.17-4.13-5.18-2.26-10.1-5.14-15.33-7.24-8.73-3.51-17-3.35-23.5,4.7a5.29,5.29,0,0,1-1.16.92c-.11.08-.31,0-.47,0,.31-16.09,10.55-24.76,23.24-23.16,8.63,1.09,12.82-3,12.62-11.74-.08-3.15-.85-6.3-.75-9.43.21-6.12,3-10.92,8.62-13.63s11.23-2.77,16.56.93c.92.64,1.87,1.26,2.94,2,1-4.31,1.46-8.46,2.82-12.3,3.9-10.91,13.34-13.51,22.36-6.28,1.75,1.41,2.92,1.43,4.79.22,14.85-9.66,32.34,2.92,30.7,17a5.93,5.93,0,0,0,2.26,5.7C591.8,191.32,593.92,199.57,589.9,208.27Z" transform="translate(90.36 -141.47)"/><path class="cls-1" d="M653.41,207c-.14,7.27-5,11.26-11.89,9-3.58-1.18-6.29-1.53-9.92-.08-7.64,3.05-11-2.6-12.28-8.42-.45-2.05-.93-3.82-2.73-5.06-3-2.06-7.51-.75-10.68,3.06-.93,1.11-1,2.84-2.55,3.52-3.72-7.81,2.61-13.46,9-13.34,3.16.06,6.43,2,9.08-1.49a16.55,16.55,0,0,0,3.48-12.54c-.84-6.95,2.21-11.31,8.8-12.72.49-.11,1.07-.37,1.46-.21,5.46,2.26,10.6-1.37,16-.81,2.18.23,4.07-.76,6-2,4.62-2.93,11.52-.73,12.3,4.68.68,4.74,4.08,8.69,3.33,13.7-.17,1.15.1,2.66-.85,3.25-4.43,2.7-4.38,6.76-4.37,11.29,0,3.86-5,6.37-10.39,5.86C655.29,204.62,653.47,203.92,653.41,207Z" transform="translate(90.36 -141.47)"/><path class="cls-1" d="M711.24,188.17c-2.72-1.1-4.25,0-5.27,2.08-1.21,2.52-.29,4.52,1.81,6.09,1.72,1.29,3.71,1.15,5.73,1.13,1.53,0,3.74-2.43,4.53.67.64,2.51.25,4.9-2.72,6.18" transform="translate(90.36 -141.47)"/><path class="cls-1" d="M715,226.34c2.31.79,3.38,2,3.17,4.33-.25,2.58,1.3,6-2.88,6.94l2,1c-.17,3.79-3.09,2.78-5.06,2.56-6.87-.8-13.14-3.43-19.15-6.78a58.86,58.86,0,0,0-15.64-6.44c-6.7-1.51-9.57-.49-19.23,6.31-2.34-7.39,4.92-19.26,13.25-21.44a23.93,23.93,0,0,1,8.87-.81c8.91,1,13-2.93,12.95-11.92,0-4.61-1.28-9.18,0-13.86,2.76-9.82,16.92-14.27,25-6.59-5.25-2.05-9.73-3.07-14.13-1.64-4.57,1.49-8.5,4-9,9.52l.94.95c3.68-8.7,12-12.26,18.74-8,3.66,2.29,4.88,10.72,1.92,13.8a5.83,5.83,0,0,1-5.91,1.83" transform="translate(90.36 -141.47)"/><path class="cls-1" d="M716.81,223.83c-2.23.73-3.62-1.09-4.8-2.71a10.07,10.07,0,0,1,1.63-13.43c1-.81,2.07-1.88,3.51-1.2,1.27.59,1,2,1.05,3.08.07,1.81,0,3.63,0,5.44,0,1.49.07,3,0,4.46S718.74,223.19,716.81,223.83Z" transform="translate(90.36 -141.47)"/><path class="cls-1" d="M791.21,203.57c-2.75,8.13-10.52,13.76-19.79,14.34-7,.44-12.63-2.26-17.34-7.26-3.33-3.53-5.77-3.54-9.33-.33-3.22,2.89-4.56,6.9-6.54,10.55-4.4,8.12-9.77,15.17-19.59,17.1V176c1.63,1.36,2.88,2.44,3.16-1.07.39-5,1.37-9.88,4.31-14.17,4.53-6.6,13.13-8,19-2.66,2.41,2.18,3.91,2.3,6.76.54,12.77-7.87,29.44,1.28,29.65,16.19.05,3.67,1,6.08,4.08,8.37C791.47,187.58,793.6,196.47,791.21,203.57Z" transform="translate(90.36 -141.47)"/><path class="cls-1" d="M853.81,204.41c-.25,7.4-5,11.3-11.84,9.1-3.56-1.13-6.26-1.58-9.93-.1-7.7,3.1-11-2.59-12.31-8.4-.45-2-1-3.73-2.71-5.08-4.74-3.75-7.24.73-10.36,2.75-1.18.77-1.35,2.65-3.32,3.4-1.6-8.93,2.84-14,11.1-12.37,7.21,1.38,9.65-4.1,10.95-10.35a14.33,14.33,0,0,0-.14-4.47c-.91-8.09,5.2-13.4,13.14-12.57,6.52.67,13.26.09,19.32-3.15,4.11-2.19,9.88-1.07,11.41,3.53,1.6,4.86,5.32,10.05,3.65,14.9-2,5.91-4.57,11.65-6.52,17.67-1,3-5.5,3.59-9.13,2.92C855.33,201.86,853.91,201.77,853.81,204.41Z" transform="translate(90.36 -141.47)"/><path class="cls-1" d="M987,211.19c-8.56,8.58-23.79,9-32,.44-4.71-4.92-8-4.83-11.86.76a93.14,93.14,0,0,0-5.41,9.55c-4.44,8.31-10.57,14.48-20.22,16.34-6.78,1.3-12.81-1.25-18.75-3.85-5-2.21-9.79-5-14.84-7.13-9.31-3.91-18.15-4.05-25.36,5.27-1.25-13.5,8.41-24.25,21-23.27,11.09.87,14.6-2.49,14.12-13.55-.11-2.33-.68-4.64-.63-6.95.14-6.31,2.7-11.3,8.63-14.07,5.65-2.62,11.23-2.87,16.56.93.91.65,1.85,1.27,3.05,2.11,1.21-5.42,1.55-10.57,3.92-15.29,4-7.88,13.38-10.25,20-4.43,2.4,2.12,3.9,2.35,6.79.61,6.41-3.88,13.51-4.17,20-.27s10.32,9.87,9.67,17.89c-.19,2.31,0,4,2.29,5.48C994.71,188.67,993.27,204.88,987,211.19Z" transform="translate(90.36 -141.47)"/><path class="cls-1" d="M1053.88,206.64c.6,4.91-5.9,9.11-11.75,6.84-4.22-1.65-7.62-.6-11.33.23-6.21,1.41-9.78-1.11-9.34-7.24.3-4.16-3-5-5.31-6.9s-3.62-1-5.86.37c-2.62,1.62-4.31,4-6.84,6.58-1.76-9.42,2.66-14.27,11-13.11,5.46.77,9.48-2.22,10.08-7.76.31-2.8,0-5.66.22-8.47.58-8,7.07-12.62,14.69-10.15,2.95.95,4.69-1.18,6.92-1.32a37.2,37.2,0,0,0,13.67-3.27c4.66-2.13,10.62,2.88,10.14,8.24-.21,2.31.63,3.17,1.86,4.54,3.33,3.68,2.86,8.23-1,11.28-2,1.55-3.93,2.14-1.76,5.83,2.42,4.12-5.27,11.36-10.59,10C1054.14,201.22,1053.35,202.24,1053.88,206.64Z" transform="translate(90.36 -141.47)"/><path class="cls-1" d="M1187.08,210.93c-8.62,9.12-24,9.36-32.35.5-4.31-4.57-7.18-4.51-11.35.31-3,3.45-4.32,7.86-6.66,11.7-9.18,15.08-21.39,18.85-37.36,11.33-3.61-1.7-7.11-3.63-10.71-5.37-10.45-5-20.78-8.17-29.92,2.82-2.36-8.1,5-19.91,13.26-22a26.81,26.81,0,0,1,9.39-.7c8.11.85,12.24-3.07,12.27-11.15,0-3.33.1-6.67-.14-10-.45-6.24,2.24-10.77,7.62-13.44,5.65-2.81,11.48-3.27,17,.7.9.65,1.59,1.78,3.11,1.68,1.32-4.57,1.13-9.53,3.22-14,2.87-6.1,8-9.14,14.44-8.32,1,.12,2.29.14,2.84.76,4.65,5.18,9.14,3,14.69,1.08,13.06-4.43,25.46,5.59,25.07,19.44-.06,2.31.09,4.09,2.26,5.55C1195.24,189.5,1192.81,204.86,1187.08,210.93Z" transform="translate(90.36 -141.47)"/><path class="cls-1" d="M1253.68,204.22c.06,7.44-4.82,11.73-11.64,9.23-4.25-1.56-7.64-.55-11.33.32-5.17,1.22-9.8-1.29-10.83-6.32-.6-3,.34-6.91-4.05-7.51-4.59-.63-8.64.55-10.87,5.21a15.14,15.14,0,0,1-1.69,2.08c-1.51-10.5,2.62-14.83,12-13.65,4.76.59,8.73-2.77,9.25-8.1.29-3,0-6,.26-9,.7-7.34,6-10.87,13.13-9.29,2,.43,4.28,1.12,6.19-.64,1.35-1.24,3-1.18,4.71-1.1a13.1,13.1,0,0,0,7.49-1.89c6.62-3.78,11.85-.81,12.53,6.75a6.23,6.23,0,0,0,2,3.85c4.07,4.32,3.86,9-.59,12.73-1.41,1.18-2.34,2.39-1.73,4.24,2.11,6.49-4.37,12.26-11.47,10.94C1255.05,201.72,1253.66,201.1,1253.68,204.22Z" transform="translate(90.36 -141.47)"/><path class="cls-1" d="M1390.31,205.73c-3.9,8.43-14.06,13.5-23.7,12-5-.8-8.95-3.41-12.4-6.93-3.6-3.67-6-3.71-9.68-.25-3.16,2.95-4.48,7-6.45,10.61-4.59,8.49-10.48,15.33-20.69,17.2-7.05,1.28-13.09-1.5-19.17-4.14-5.18-2.25-10.1-5.14-15.33-7.24-8.74-3.51-17-3.35-23.5,4.7a5.29,5.29,0,0,1-1.16.92c-.11.08-.31,0-.47,0,.31-16.09,10.55-24.76,23.24-23.16,8.62,1.09,12.82-3,12.62-11.74-.08-3.15-.85-6.3-.75-9.43.21-6.12,3-10.92,8.62-13.63s11.22-2.77,16.55.93c.93.64,1.88,1.26,3,2,1-4.31,1.45-8.46,2.82-12.3,3.89-10.9,13.34-13.5,22.36-6.28,1.75,1.41,2.92,1.44,4.79.22,14.85-9.66,32.34,2.93,30.7,16.95a5.94,5.94,0,0,0,2.25,5.7C1392.21,188.77,1394.33,197,1390.31,205.73Z" transform="translate(90.36 -141.47)"/></svg>